 <svg version="1.0"
                  height="40" viewBox="-5 45 245 50">
                  <g transform="translate(0.000000,140.000000) scale(0.100000,-0.100000)"
                    fill="currentColor" stroke="none">
                    <path d="M169 916 c-87 -23 -151 -94 -163 -181 l-6 -40 13 45 c19 64 31 84 78
124 167 143 422 -48 330 -249 -25 -57 -91 -113 -141 -121 -22 -4 -43 -10 -45
-14 -11 -17 83 12 120 38 52 35 95 118 95 181 0 146 -141 255 -281 217z"/>
                    <path d="M164 830 c-31 -12 -72 -66 -80 -105 -12 -67 37 -145 102 -161 45 -11
105 3 135 32 64 61 61 154 -6 213 -30 26 -44 31 -83 30 -26 0 -56 -4 -68 -9z
m93 -26 c8 -22 -10 -49 -32 -49 -22 0 -40 27 -32 49 8 21 56 21 64 0z m-80
-60 c8 -22 -10 -49 -32 -49 -22 0 -40 27 -32 49 8 21 56 21 64 0z m161 -16 c4
-33 -31 -49 -55 -25 -24 24 -8 59 25 55 21 -2 28 -9 30 -30z m-104 -14 c13 -5
14 -9 5 -20 -16 -20 -29 -17 -29 6 0 22 1 23 24 14z m-24 -83 c0 -28 -28 -47
-48 -34 -24 15 -27 44 -7 59 22 17 55 1 55 -25z m100 0 c0 -28 -28 -47 -48
-34 -24 15 -27 44 -7 59 22 17 55 1 55 -25z"/>
                    <path d="M562 743 c-11 -10 -22 -35 -25 -55 -5 -32 -3 -38 12 -38 12 0 20 12
27 43 8 36 13 42 37 45 23 3 28 0 25 -15 -2 -10 -13 -19 -26 -21 -26 -4 -20
-22 7 -22 21 0 46 26 55 58 7 21 5 22 -42 22 -33 0 -57 -6 -70 -17z"/>
                    <path d="M708 746 c-9 -7 -21 -31 -27 -54 -8 -37 -7 -42 9 -42 12 0 20 12 26
43 8 36 13 42 37 45 20 2 27 -1 27 -13 0 -9 -9 -19 -20 -22 -20 -5 -28 -23
-10 -23 6 0 10 -7 10 -15 0 -8 9 -15 21 -15 16 0 19 4 14 20 -4 11 0 29 9 42
27 38 20 48 -31 48 -27 0 -56 -6 -65 -14z"/>
                    <path d="M846 741 c-9 -10 -20 -35 -23 -55 l-6 -36 55 0 c64 0 74 9 84 68 l7
42 -50 0 c-36 0 -55 -5 -67 -19z m74 -29 c0 -32 -16 -52 -42 -52 -14 0 -18 8
-18 33 0 40 6 47 37 47 19 0 23 -5 23 -28z"/>
                    <path d="M1015 750 c-4 -6 7 -10 25 -10 28 0 30 -2 24 -27 -3 -16 -7 -34 -10
-40 -4 -15 -54 -18 -54 -3 0 6 -9 10 -20 10 -11 0 -20 -7 -20 -15 0 -11 13
-15 54 -15 62 0 75 11 83 70 l6 40 -41 0 c-22 0 -44 -4 -47 -10z"/>
                    <path d="M1132 743 c-11 -10 -22 -35 -25 -55 l-6 -38 67 2 c56 1 59 2 20 5
-61 5 -63 23 -4 23 25 0 48 5 51 10 4 6 -12 10 -40 10 -39 0 -46 3 -43 18 3
19 58 31 58 13 0 -17 27 -13 34 5 3 9 6 18 6 20 0 2 -22 4 -49 4 -32 0 -56 -6
-69 -17z"/>
                    <path d="M1277 745 c-11 -7 -21 -32 -24 -54 l-6 -41 64 2 c60 1 61 1 19 7 -43
6 -45 7 -41 36 1 17 5 33 8 38 7 12 51 8 55 -5 6 -16 38 -2 38 17 0 20 -87 20
-113 0z"/>
                    <path d="M1405 750 c-3 -6 5 -10 19 -10 23 0 25 -3 20 -32 -3 -18 -7 -39 -10
-45 -2 -7 5 -13 16 -13 15 0 20 10 26 45 5 39 10 45 30 45 13 0 24 5 24 10 0
6 -26 10 -59 10 -33 0 -63 -4 -66 -10z"/>
                    <path d="M1610 750 c0 -5 10 -10 21 -10 20 0 21 -4 14 -46 -6 -41 -5 -45 12
-42 10 2 19 12 21 23 8 58 13 65 37 65 14 0 25 5 25 10 0 6 -28 10 -65 10 -37
0 -65 -4 -65 -10z"/>
                    <path d="M1746 721 c-10 -62 -2 -71 59 -71 58 0 58 -1 71 73 5 30 3 37 -10 37
-18 0 -21 -7 -31 -63 -5 -34 -9 -38 -33 -35 -28 3 -30 13 -16 76 3 17 0 22
-15 22 -14 0 -20 -10 -25 -39z"/>
                    <path d="M1906 741 c-9 -10 -20 -35 -23 -55 -4 -29 -2 -36 11 -36 14 0 21 14
28 65 2 13 12 21 31 23 15 2 27 -1 27 -7 0 -6 -9 -11 -20 -11 -11 0 -20 -4
-20 -10 0 -5 9 -10 21 -10 27 0 20 -21 -12 -37 -24 -13 -24 -13 7 -13 37 0 58
21 49 49 -3 10 -1 22 5 26 5 3 10 13 10 21 0 23 -92 19 -114 -5z"/>
                    <path d="M2048 743 c-9 -10 -18 -35 -22 -55 l-7 -38 68 2 c56 1 60 2 21 5 -61
5 -63 23 -4 23 25 0 48 5 51 10 4 6 -12 10 -39 10 -39 0 -46 3 -46 20 0 16 7
20 30 20 17 0 30 -4 30 -10 0 -5 7 -10 15 -10 8 0 15 9 15 20 0 17 -7 20 -48
20 -34 0 -54 -5 -64 -17z"/>
                    <path d="M2190 740 c-11 -11 -20 -29 -20 -40 0 -17 7 -20 47 -20 59 0 46 -17
-17 -23 -43 -3 -43 -4 11 -5 43 -2 60 2 72 16 25 28 21 32 -29 32 -38 0 -45 3
-42 18 3 19 58 31 58 13 0 -17 27 -13 34 5 3 9 6 18 6 20 0 2 -22 4 -50 4 -37
0 -55 -5 -70 -20z"/>
                    <path d="M401 684 c0 -11 3 -14 6 -6 3 7 2 16 -1 19 -3 4 -6 -2 -5 -13z" />
                    <path d="M344 568 l-19 -23 23 19 c21 18 27 26 19 26 -2 0 -12 -10 -23 -22z" />
                  </g>
                </svg>